<?xml version="1.0" encoding="utf-8"?>
<!-- Generator: Adobe Illustrator 19.2.1, SVG Export Plug-In . SVG Version: 6.00 Build 0)  -->
<svg version="1.1" id="Layer_1" xmlns="http://www.w3.org/2000/svg" xmlns:xlink="http://www.w3.org/1999/xlink" x="0px" y="0px"
	 viewBox="0 0 681 280" style="enable-background:new 0 0 681 280;" xml:space="preserve">
<style type="text/css">
	.st0{fill:#FFFFFF;}
</style>
<g>
	<path class="st0" d="M661.4,120.7c6,9.2,6.7,19.3,5.4,29.7c-1.3,10.1-6.6,18.2-13,25.9c-11.8,14.2-27.1,23.5-43.1,31.7
		c-27.6,14.2-57,23-87,30c-25.5,5.9-51.3,10.2-77.3,12.9c-15.1,1.6-30.3,2.5-45.4,3.5c-11.3,0.8-22.7,1.3-34,1.7
		c-8.7,0.2-17.5,0-26.3-0.1c-11.2-0.1-22.4-0.1-33.6-0.3c-5.6-0.1-11.2-0.3-16.8-0.8c-20.1-1.6-40.1-3.3-60.2-5.1
		c-5.9-0.5-11.8-1.3-17.6-2.2c-11.2-1.6-22.3-3.4-33.5-5.2c-7.8-1.2-15.6-2.4-23.4-3.9c-9.1-1.8-18.1-3.7-27-6
		c-12.5-3.3-25.1-6.5-37.4-10.6c-19.7-6.5-39.1-14-56.2-26.1c-10.2-7.2-19.8-15.1-25.5-26.7c-4-8.3-6.7-16.9-4.8-26.2
		c2.2-10.9,6.9-20.6,14.2-29c13.7-15.6,30.7-26.6,48.9-36c31.8-16.5,65.5-27.5,100.1-36c31.4-7.7,63.2-13.4,95.4-16.7
		c16.9-1.7,33.8-3.5,50.7-4.8c11.8-0.9,23.7-1.4,35.6-1.6c11.6-0.2,23.2-0.1,34.8,0.2c14.6,0.4,29.2,0.7,43.8,1.7
		c10.7,0.7,21.2,2.5,31.9,3.6c2.3,0.2,4.7-0.5,7.1-0.5c2.8,0,5.6,0.1,8.3,0.7c10.5,2.2,20.8,4.7,31.3,6.8
		c29.7,5.9,58.6,14.3,86.5,26.2c18.9,8,36.5,18.1,52.9,30.4c3.8,2.8,7.5,5.7,11.3,8.4c1.7,1.2,3.7,2.3,5.6,3.2c4.1,2,6.8,5.1,7,9.7
		c0.3,4.9-2.2,8.6-6.8,10.7C662.7,120.2,662.2,120.4,661.4,120.7z M264.5,243.6c0,0.3,0,0.7-0.1,1c16,0.7,31.9,1.7,47.9,2.2
		c14.8,0.4,29.5,0.4,44.3,0.3c11.8-0.1,23.6-0.3,35.3-1c15.4-0.9,30.8-2,46.1-3.4c26.3-2.5,52.3-6.9,77.9-12.9
		c29.4-6.9,58.2-15.8,85-30.1c15.1-8.1,29.6-17,40.7-30.7c8.7-10.7,12.6-22.3,9.2-35.8c-2.5-9.9-9.5-16.9-16.7-23.6
		c-16.3-15-35.3-26-55.1-35.4c-35.1-16.6-71.5-29.2-110-35.2c-2.3-0.4-4.3-2.4-6.4-3.7c-0.7-0.4-1.4-1.2-2.2-1.3
		c-11.9-1.4-23.7-3.3-35.6-4c-20.1-1.2-40.3-1.9-60.5-2.4c-13-0.3-26.1-0.1-39.1,0.7c-16.7,1-33.5,2.4-50.1,4.2
		c-31.8,3.4-63.2,8.5-94.3,16.1c-33.2,8.1-65.7,18.3-96.2,33.9c-19,9.7-37.3,20.6-51.5,37c-6.3,7.2-10.8,15.3-12.6,24.6
		c-1.9,9.9,1.9,18.5,7.6,26.1c9.4,12.5,22.2,20.9,35.8,27.8c27.7,14,57.4,22.6,87.5,29.4c11.5,2.6,23.1,4.7,34.7,6.7
		c13.4,2.3,26.8,4.7,40.4,6.3C239.1,242,251.8,242.6,264.5,243.6z"/>
</g>
</svg>
